#!OML:ASF F:\VICON\USERDATA\INSTALL\rory3\rory3.ASF
:FULLY-SPECIFIED
:DEGREES
1731
root -1.13576 17.4923 0.255382 -100.781 -80.1107 109.954
lowerback 12.2992 2.62191 -1.68229
upperback 2.7832 3.26554 2.75788
thorax -4.22511 1.58936 3.32204
lowerneck -17.1291 14.5365 -3.97597
upperneck 21.7971 22.5046 -5.07002
head 9.93238 9.43208 1.86714
rclavicle -5.00937e-014 -3.81667e-014
rhumerus -20.103 26.7413 -79.5857
rradius 122.653
rwrist -3.09832
rhand -9.11979 25.4972
rfingers 7.12502
rthumb 16.8311 -3.79335
lclavicle -5.00937e-014 -3.81667e-014
lhumerus 14.5078 32.2732 48.4955
lradius 62.6149
lwrist -11.5849
lhand -18.8437 9.68575
lfingers 7.12502
lthumb 7.45598 39.5344
rfemur -23.4353 9.2965 -9.50151
rtibia 45.0003
rfoot -9.39874 -0.34123
rtoes -8.05503
lfemur -31.9849 13.6768 -11.7108
ltibia 40.5342
lfoot 4.13378 -4.07541
ltoes -25.0401
1732
root -1.23956 17.4167 0.347994 -90.8236 -81.108 99.4641
lowerback 12.6084 1.97428 -1.37964
upperback 2.70003 2.46372 3.25659
thorax -4.43287 1.1919 3.80025
lowerneck -17.3914 14.6223 -4.27489
upperneck 22.2588 22.7042 -4.77606
head 10.0721 9.48893 2.06251
rclavicle 7.95139e-016 -1.90833e-014
rhumerus -20.9339 26.7463 -79.3345
rradius 122.87
rwrist -4.24786
rhand -8.59499 25.1545
rfingers 7.12502
rthumb 17.3363 -4.09232
lclavicle 7.95139e-016 -1.90833e-014
lhumerus 16.678 32.5438 46.6735
lradius 56.291
lwrist -12.2286
lhand -19.2736 9.7503
lfingers 7.12502
lthumb 7.04109 39.6132
rfemur -20.8964 9.6429 -8.56481
rtibia 44.4843
rfoot -11.5037 0.325997
rtoes -4.90339
lfemur -31.5576 12.3565 -10.6486
ltibia 37.949
lfoot 4.88577 -1.86356
ltoes -24.5763
1733
root -1.34546 17.3489 0.431523 -80.8606 -81.7023 89.4218
lowerback 12.4307 1.48924 -1.32423
upperback 2.55996 1.84997 3.63645
thorax -4.44481 0.892291 4.27559
lowerneck -17.7456 14.662 -4.43705
upperneck 22.4405 22.8394 -4.70436
head 10.174 9.51637 2.16064
rclavicle 1.82882e-014 3.02153e-014
rhumerus -21.7778 26.7617 -79.1018
rradius 123.216
rwrist -5.04558
rhand -8.56325 24.9179
rfingers 7.12502
rthumb 17.3668 -4.32619
lclavicle 1.82882e-014 3.02153e-014
lhumerus 17.7693 32.6354 44.826
lradius 53.0377
lwrist -14.2246
lhand -19.2302 10.185
lfingers 7.12502
lthumb 7.08291 40.0465
rfemur -19.071 9.94848 -7.89102
rtibia 43.8091
rfoot -13.4621 0.261987
rtoes -5.32488
lfemur -31.5411 11.4344 -9.82387
ltibia 35.3629
lfoot 6.27449 0.468413
ltoes -23.9622
1734
root -1.45103 17.2829 0.52275 -69.9915 -81.9428 78.3368
lowerback 12.4875 0.952729 -1.35662
upperback 2.45255 1.15274 4.01698
thorax -4.5374 0.55165 4.81456
lowerneck -18.0964 14.7521 -4.60922
upperneck 22.2923 23.0761 -4.88856
head 10.1917 9.58358 2.178
rclavicle 1.59028e-014 7.95139e-014
rhumerus -22.6185 27.1187 -78.8218
rradius 123.595
rwrist -5.33562
rhand -8.96603 25.0891
rfingers 7.12502
rthumb 16.9791 -4.18879
lclavicle 1.59028e-014 7.95139e-014
lhumerus 17.2912 32.6553 42.8317
lradius 53.2834
lwrist -16.9842
lhand -18.1627 10.8856
lfingers 7.12502
lthumb 8.11328 40.7099
rfemur -17.1702 10.1397 -7.33789
rtibia 43.0665
rfoot -15.1988 -0.344818
rtoes -7.92959
lfemur -31.4129 10.4022 -9.11938
ltibia 32.8149
lfoot 8.00719 2.95884
ltoes -22.0094
1735
root -1.56079 17.2122 0.629695 -57.9322 -81.9745 66.035
lowerback 12.6935 0.296496 -1.18896
upperback 2.25228 0.327978 4.4124
thorax -4.78474 0.149419 5.28259
lowerneck -18.4517 14.9574 -4.58501
upperneck 22.1534 23.4565 -5.19297
head 10.2545 9.71292 2.15765
rclavicle -7.95139e-016 3.65764e-014
rhumerus -23.6937 27.7453 -78.7632
rradius 124.163
rwrist -5.31501
rhand -9.00729 25.453
rfingers 7.12502
rthumb 16.9394 -3.8283
lclavicle -7.95139e-016 3.65764e-014
lhumerus 16.0646 32.5366 40.7659
lradius 54.9196
lwrist -19.0764
lhand -17.8282 10.781
lfingers 7.12502
lthumb 8.4361 40.5925
rfemur -15.3011 9.94215 -6.63517
rtibia 42.478
rfoot -16.1253 -0.407363
rtoes -9.29438
lfemur -31.3381 9.02831 -8.23103
ltibia 30.3788
lfoot 9.77176 5.26366
ltoes -19.4973
1736
root -1.67338 17.1358 0.75127 -46.243 -81.9828 54.1679
lowerback 12.8384 -0.288216 -0.659676
upperback 2.01699 -0.352576 4.756
thorax -5.04527 -0.18702 5.46965
lowerneck -18.7284 15.1242 -4.47247
upperneck 21.8767 23.7039 -5.39113
head 10.2469 9.81942 2.12812
rclavicle -1.59028e-015 1.00187e-013
rhumerus -24.9484 28.1459 -78.6694
rradius 125.109
rwrist -5.64583
rhand -8.4426 25.8098
rfingers 7.12502
rthumb 17.4829 -3.42402
lclavicle -1.59028e-015 1.00187e-013
lhumerus 14.5102 32.1902 39.1356
lradius 58.0224
lwrist -19.2565
lhand -18.2726 10.914
lfingers 7.12502
lthumb 8.00725 40.7423
rfemur -13.7727 9.44028 -5.76755
rtibia 42.069
rfoot -16.2817 0.0603875
rtoes -10.9334
lfemur -31.3241 7.46294 -7.04049
ltibia 28.1322
lfoot 11.348 6.95402
ltoes -19.3031
1737
root -1.78769 17.0588 0.88476 -35.8087 -81.878 43.5849
lowerback 12.8102 -0.701493 -0.135642
upperback 1.90119 -0.816195 5.07001
thorax -5.10864 -0.423607 5.58715
lowerneck -19.0127 15.133 -4.44825
upperneck 21.2542 23.6779 -5.48251
head 10.0869 9.84233 2.0851
rclavicle -3.97569e-015 9.54166e-015
rhumerus -26.1202 28.2063 -78.3849
rradius 126.409
rwrist -6.5052
rhand -7.20968 26.2139
rfingers 7.12502
rthumb 18.6692 -2.9102
lclavicle -3.97569e-015 9.54166e-015
lhumerus 12.8231 31.5255 38.1269
lradius 62.728
lwrist -17.0247
lhand -18.8014 11.6029
lfingers 7.12502
lthumb 7.4969 41.4501
rfemur -12.5112 8.80587 -5.01029
rtibia 41.7853
rfoot -16.2164 0.488469
rtoes -11.5957
lfemur -31.3258 5.90349 -5.84687
ltibia 26.1629
lfoot 12.6275 7.85224
ltoes -21.071
